<svg xmlns="http://www.w3.org/2000/svg" version="1.1" xmlns:xlink="http://www.w3.org/1999/xlink" width="518" height="120" viewBox="0 0 518 120"><svg xml:space="preserve" width="518" height="120" data-version="2" data-id="lg_UnYCL4LqG20KUgszqL" viewBox="0 0 375 93" x="0" y="0"><rect width="100%" height="100%" fill="transparent"></rect><g transform="translate(43.611 51.718)"><linearGradient id="a" x1="-1.367" x2="5.007" y1="0" y2="0" gradientUnits="objectBoundingBox"><stop offset="0%" stop-color="#0f3054"></stop><stop offset="49.8%" stop-color="#3b8dcb"></stop><stop offset="100%" stop-color="#0f3054"></stop></linearGradient><path fill="url(#a)" d="M258.91 439.55h-5.74l-1.28-3.48q-1.28-3.48-3.29-9.15-2.02-5.67-4.52-12.45l-5-13.54q-2.5-6.77-4.51-12.38-2.02-5.61-3.3-9.03l-1.28-3.41q-1.95-5.01-3.9-7.2-1.95-2.2-5.86-2.93-1.71-.37-2.38-.61-.67-.24-.67-2.2 0-2.07 1.47-2.25 1.46-.19 3.41-.19 8.18.13 12.69 2.99 4.51 2.87 7.2 9.82l17.69 47.58h.36l16.84-48.92q1.34-3.9.12-4.94-1.22-1.04-5.49-1.04-1.22 0-2.07-.24-.86-.24-.98-2.32 0-.97.49-1.83.49-.85 1.59-.85 3.9.12 6.77.24 2.86.12 6.52.12 2.44 0 4.03-.06l3.23-.12q1.65-.06 4.21-.18 1.22 0 1.71.85.49.86.49 1.83-.12 2.08-.92 2.32-.79.24-2.13.24-4.64 0-7.32 1.71-2.69 1.71-4.64 6.59 0-.12-1.28 3.35-1.28 3.48-3.35 9.28l-4.58 12.75q-2.5 6.95-5.06 13.9-2.56 6.96-4.64 12.81-2.07 5.86-3.35 9.4z" transform="translate(-257.32 -400.14)"></path></g><g transform="translate(100.161 47.323)"><linearGradient id="b" x1="-5.183" x2="9.961" y1="0" y2="0" gradientUnits="objectBoundingBox"><stop offset="0%" stop-color="#0f3054"></stop><stop offset="49.8%" stop-color="#3b8dcb"></stop><stop offset="100%" stop-color="#0f3054"></stop></linearGradient><path fill="url(#b)" d="M301.12 438.69q-.86 0-1.4-.79-.55-.79-.55-1.65.24-1.83.97-2.01.73-.18 1.95-.18 3.42 0 4.64-1.16 1.22-1.16 1.4-3.11.19-1.96.19-4.03v-27.94q0-2.19-.19-4.09-.18-1.89-1.4-3.05-1.22-1.15-4.64-1.15-1.09 0-2.01-.31-.91-.3-.91-2.13 0-1.83 1.95-2.2 5.61-.85 8.6-1.71 2.99-.85 4.57-1.46 1.59-.61 2.81-.73.98-.13 1.65.36.67.49.67 1.95v42.46q0 2.07.18 4.03.18 1.95 1.47 3.11 1.28 1.16 4.69 1.16 1.1 0 1.89.18.8.18.92 2.01 0 .86-.49 1.65-.49.79-1.46.79-3.54-.24-6.53-.3t-6.28-.06q-3.3 0-6.23.06-2.92.06-6.46.3m12.08-71.25q-3.42 0-5.74-2.13-2.32-2.14-2.32-5.31 0-2.8 2.81-5t6.34-2.2q3.05 0 5.01 2.14 1.95 2.13 1.95 5.43 0 2.93-2.32 5t-5.73 2.07" transform="translate(-313.87 -395.745)"></path></g><g transform="translate(139.676 55.498)"><linearGradient id="c" x1="-4.829" x2="6.78" y1="0" y2="0" gradientUnits="objectBoundingBox"><stop offset="0%" stop-color="#0f3054"></stop><stop offset="49.8%" stop-color="#3b8dcb"></stop><stop offset="100%" stop-color="#0f3054"></stop></linearGradient><path fill="url(#c)" d="M357.6 440.4q-3.66 0-6.95-1.83t-5.43-5.61q-2.13-3.78-2.13-9.52v-35.87l-7.08.25q-.85 0-1.28-.67-.43-.67-.43-1.53 0-2.44 1.71-2.8 4.51-.86 6.83-2.87 2.32-2.01 3.6-4.82 1.28-2.81 2.38-6.1.37-.98 1.1-1.28.73-.31 1.58-.31.74 0 1.65.37.92.37.92 1.34l-.86 13.91 14.28-.85q1.09-.13 1.46.61.37.73.37 1.7 0 1.22-.43 2.44t-1.04 1.22l-13.66-.36v37.09q0 3.53 1.52 6.46 1.53 2.93 5.55 2.93 1.35 0 3.05-.24 1.71-.25 3.66-1.1.49-.25.98-.43t.98-.18q.97 0 1.46.79t.86 1.65q.36 1.1-.62 1.71-3.78 2.44-6.95 3.17-3.17.73-7.08.73" transform="translate(-353.385 -403.92)"></path></g><g transform="translate(182.511 47.323)"><linearGradient id="d" x1="-7.463" x2="7.681" y1="0" y2="0" gradientUnits="objectBoundingBox"><stop offset="0%" stop-color="#0f3054"></stop><stop offset="49.8%" stop-color="#3b8dcb"></stop><stop offset="100%" stop-color="#0f3054"></stop></linearGradient><path fill="url(#d)" d="M383.47 438.69q-.85 0-1.4-.79-.55-.79-.55-1.65.24-1.83.97-2.01.73-.18 1.95-.18 3.42 0 4.64-1.16 1.22-1.16 1.4-3.11.19-1.96.19-4.03v-27.94q0-2.19-.19-4.09-.18-1.89-1.4-3.05-1.22-1.15-4.64-1.15-1.09 0-2.01-.31-.91-.3-.91-2.13 0-1.83 1.95-2.2 5.61-.85 8.6-1.71 2.99-.85 4.57-1.46 1.59-.61 2.81-.73.98-.13 1.65.36.67.49.67 1.95v42.46q0 2.07.18 4.03.18 1.95 1.47 3.11 1.28 1.16 4.69 1.16 1.1 0 1.89.18.8.18.92 2.01 0 .86-.49 1.65-.49.79-1.46.79-3.54-.24-6.53-.3t-6.28-.06q-3.3 0-6.22.06-2.93.06-6.47.3m12.08-71.25q-3.42 0-5.74-2.13-2.31-2.14-2.31-5.31 0-2.8 2.8-5 2.81-2.2 6.34-2.2 3.05 0 5.01 2.14 1.95 2.13 1.95 5.43 0 2.93-2.32 5t-5.73 2.07" transform="translate(-396.22 -395.745)"></path></g><g transform="translate(235.946 45.645)"><linearGradient id="e" x1="-4.418" x2="3.01" y1="0" y2="0" gradientUnits="objectBoundingBox"><stop offset="0%" stop-color="#0f3054"></stop><stop offset="49.8%" stop-color="#3b8dcb"></stop><stop offset="100%" stop-color="#0f3054"></stop></linearGradient><path fill="url(#e)" d="M418.36 438.69q-.98 0-1.46-.79-.49-.79-.49-1.65.12-1.83.91-2.01.8-.18 1.89-.18 3.42 0 4.7-1.16 1.28-1.16 1.47-3.11.18-1.96.18-4.03v-59.41q0-2.2-.18-4.09-.19-1.89-1.41-3.05t-4.63-1.16q-1.1 0-2.02-.31-.91-.3-.91-2.13 0-1.83 1.95-2.2 5.61-.85 8.6-1.7 2.99-.86 4.58-1.47 1.58-.61 2.8-.73.98-.12 1.65.37.67.48.67 1.95v55.75q5.37-1.1 8.78-4.51l10.25-10.49q.73-.86 1.65-1.83.91-.98 1.1-1.83.18-.86-1.04-1.35-1.22-.48-4.64-.24-1.34-.24-1.46-2.2 0-.97.55-1.7.55-.74 1.4-.74 2.81.13 6.77.25 3.97.12 6.65.12 2.08 0 4.09-.12t4.09-.25q.97 0 1.46.74.49.73.49 1.7-.12 1.59-.67 1.89-.55.31-1.41.31-4.75 0-7.68 1.71-2.93 1.71-6.59 5.49l-10.25 10.49q1.47 1.95 3.91 4.76 2.44 2.8 5.18 5.91 2.75 3.12 5.19 5.86 2.44 2.75 3.9 4.45 3.54 3.79 5.92 5.8t5.91 2.26q.98.12 1.83.3.86.18.86 1.89 0 .86-.43 1.65-.43.79-1.52.79-1.71-.12-2.81-.18t-2.44-.12q-1.34-.06-3.84-.06h-7.14q-4.27-4.64-9.82-11.11-5.55-6.46-11.04-12.81-1.22-1.34-3.11-2.5t-4.09-.91v14.76q0 2.07.18 4.03.19 1.95 1.47 3.11t4.57 1.16q1.22 0 2.02.18.79.18.91 2.01 0 .86-.49 1.65-.49.79-1.46.79-3.54-.24-6.59-.3t-6.22-.06q-3.3 0-6.22.06-2.93.06-6.47.3" transform="translate(-449.655 -394.067)"></path></g><g transform="translate(299.893 62.273)"><linearGradient id="f" x1="-6.12" x2="2.4" y1="0" y2="0" gradientUnits="objectBoundingBox"><stop offset="0%" stop-color="#0f3054"></stop><stop offset="49.8%" stop-color="#3b8dcb"></stop><stop offset="100%" stop-color="#0f3054"></stop></linearGradient><path fill="url(#f)" d="M516.33 439.79q-9.4 0-15.8-4.03-6.41-4.02-9.58-10.73-3.17-6.71-3.17-14.64 0-5.37 1.89-10.43 1.89-5.07 5.43-9.28 3.54-4.2 8.54-6.64 5-2.44 11.35-2.44 11.22 0 16.89 5.79 5.67 5.8 6.53 14.7 0 4.27-2.38 5.61-2.38 1.35-6.16 1.35h-29.65q0 7.07 1.96 12.62 1.95 5.55 6.16 8.79 4.2 3.23 11.16 3.23 5.12 0 8.78-2.2 3.66-2.19 7.08-7.68.98-1.22 2.68-.12.98.48 1.22 1.52.25 1.04-.24 1.77-3.78 5.98-9.52 9.39-5.73 3.42-13.17 3.42m-16.11-35.38h19.89q2.93 0 4.7-1.16t1.89-3.96q0-5.25-2.87-9.34-2.87-4.08-8.84-4.08-6.11 0-10.19 4.88-4.09 4.88-4.58 13.66" transform="translate(-513.602 -410.695)"></path></g><g transform="translate(352.445 55.498)"><linearGradient id="g" x1="-9.43" x2="2.178" y1="0" y2="0" gradientUnits="objectBoundingBox"><stop offset="0%" stop-color="#0f3054"></stop><stop offset="49.8%" stop-color="#3b8dcb"></stop><stop offset="100%" stop-color="#0f3054"></stop></linearGradient><path fill="url(#g)" d="M570.37 440.4q-3.66 0-6.95-1.83t-5.43-5.61q-2.14-3.78-2.14-9.52v-35.87l-7.07.25q-.86 0-1.28-.67-.43-.67-.43-1.53 0-2.44 1.71-2.8 4.51-.86 6.83-2.87 2.32-2.01 3.6-4.82 1.28-2.81 2.38-6.1.36-.98 1.1-1.28.73-.31 1.58-.31.73 0 1.65.37.91.37.91 1.34l-.85 13.91 14.27-.85q1.1-.13 1.47.61.36.73.36 1.7 0 1.22-.42 2.44-.43 1.22-1.04 1.22l-13.66-.36v37.09q0 3.53 1.52 6.46 1.53 2.93 5.55 2.93 1.35 0 3.05-.24 1.71-.25 3.66-1.1.49-.25.98-.43t.97-.18q.98 0 1.47.79t.85 1.65q.37 1.1-.61 1.71-3.78 2.44-6.95 3.17-3.17.73-7.08.73" transform="translate(-566.154 -403.92)"></path></g></svg></svg>