<svg xmlns="http://www.w3.org/2000/svg" version="1.1" xmlns:xlink="http://www.w3.org/1999/xlink" width="518" height="120" viewBox="0 0 120 120"><rect width="120" height="120" x="0" y="0" id="background" stroke="transparent" fill="#ffffff"></rect><svg xml:space="preserve" width="1000" height="1000" data-version="2" data-id="lg_UnYCL4LqG20KUgszqL" viewBox="0 0 101 99" x="250" y="250"><rect width="100%" height="100%" fill="transparent"></rect><g transform="translate(50.5 49.5)"><linearGradient id="a" x1="-2.505" x2="2.493" y1="0" y2="0" gradientUnits="objectBoundingBox"><stop offset="0%" stop-color="#0f3054"></stop><stop offset="49.8%" stop-color="#3b8dcb"></stop><stop offset="100%" stop-color="#0f3054"></stop></linearGradient><path fill="url(#a)" d="M404.09 464.44h-7.05l-1.58-4.27q-1.57-4.28-4.05-11.25-2.47-6.98-5.55-15.3-3.07-8.33-6.15-16.65-3.07-8.33-5.55-15.23-2.47-6.9-4.05-11.1l-1.57-4.2q-2.4-6.15-4.8-8.85-2.4-2.7-7.2-3.6-2.1-.45-2.93-.75-.82-.3-.82-2.7 0-2.55 1.8-2.77 1.8-.23 4.2-.23 10.05.15 15.6 3.68 5.55 3.52 8.85 12.07l21.75 58.5h.45l20.7-60.15q1.65-4.8.15-6.07-1.5-1.28-6.75-1.28-1.5 0-2.55-.3-1.05-.3-1.2-2.85 0-1.2.6-2.25t1.95-1.05q4.8.15 8.32.3 3.53.15 8.03.15 3 0 4.95-.07 1.95-.08 3.97-.15 2.03-.08 5.18-.23 1.5 0 2.1 1.05.6 1.05.6 2.25-.15 2.55-1.13 2.85-.97.3-2.62.3-5.7 0-9 2.1t-5.7 8.1q0-.15-1.58 4.13-1.57 4.27-4.12 11.4-2.55 7.12-5.63 15.67-3.07 8.55-6.22 17.1t-5.7 15.75q-2.55 7.2-4.13 11.55z" transform="translate(-402.14 -415.99)"></path></g></svg></svg>